<svg xmlns="http://www.w3.org/2000/svg" width="20" height="20" viewBox="0 0 20 20"><defs><style>.a,.b{fill:#0d73e2;}.a{opacity:0;}</style></defs><rect class="a" width="20" height="20"/><g transform="translate(1.667 1.667)"><path class="b" d="M14.423,0H2.248A2.246,2.246,0,0,0,0,2.246V14.421a2.246,2.246,0,0,0,2.246,2.246h6l.01-5.956H6.715a.365.365,0,0,1-.365-.364l-.007-1.92a.365.365,0,0,1,.365-.366H8.252V6.206a3.031,3.031,0,0,1,3.235-3.325h1.576a.365.365,0,0,1,.365.365V4.865a.365.365,0,0,1-.365.365H12.1c-1.044,0-1.247.5-1.247,1.225V8.061h2.295a.365.365,0,0,1,.363.408l-.228,1.92a.365.365,0,0,1-.363.322H10.86l-.01,5.956h3.573a2.246,2.246,0,0,0,2.246-2.246V2.246A2.246,2.246,0,0,0,14.423,0Z" transform="translate(-0.002)"/></g></svg>