<svg xmlns="http://www.w3.org/2000/svg" width="20" height="20" viewBox="0 0 20 20"><defs><style>.a,.b{fill:#0d73e2;}.a{opacity:0;}</style></defs><rect class="a" width="20" height="20"/><g transform="translate(1.667 1.667)"><path class="b" d="M12.067,0H4.6A4.6,4.6,0,0,0,0,4.6v7.468a4.6,4.6,0,0,0,4.6,4.6h7.468a4.6,4.6,0,0,0,4.6-4.6V4.6A4.6,4.6,0,0,0,12.067,0Zm3.121,12.067a3.124,3.124,0,0,1-3.121,3.121H4.6a3.124,3.124,0,0,1-3.121-3.121V4.6A3.124,3.124,0,0,1,4.6,1.479h7.468A3.124,3.124,0,0,1,15.188,4.6v7.468Z"/><path class="b" d="M45.263,40.97a4.294,4.294,0,1,0,4.295,4.295A4.3,4.3,0,0,0,45.263,40.97Zm0,7.11a2.816,2.816,0,1,1,2.816-2.816A2.819,2.819,0,0,1,45.263,48.08Z" transform="translate(-36.929 -36.931)"/><path class="b" d="M120.005,28.251a1.084,1.084,0,1,0,.767.317A1.089,1.089,0,0,0,120.005,28.251Z" transform="translate(-107.198 -25.466)"/></g></svg>