<svg xmlns="http://www.w3.org/2000/svg" width="16.666" height="13.863" viewBox="0 0 16.666 13.863"><defs><style>.a{fill:#0d73e2;}</style></defs><path class="a" d="M16.4,36.1a6.6,6.6,0,0,1-1.149.388,3.583,3.583,0,0,0,.946-1.506h0a.188.188,0,0,0-.275-.219h0a6.631,6.631,0,0,1-1.757.726.448.448,0,0,1-.11.014.466.466,0,0,1-.308-.117,3.593,3.593,0,0,0-2.377-.9,3.842,3.842,0,0,0-1.138.176,3.481,3.481,0,0,0-2.346,2.508A3.833,3.833,0,0,0,7.8,38.5a.129.129,0,0,1-.032.1.133.133,0,0,1-.1.045H7.658a9.422,9.422,0,0,1-6.476-3.46h0a.188.188,0,0,0-.308.024h0a3.6,3.6,0,0,0,.585,4.368,3.22,3.22,0,0,1-.82-.317h0a.188.188,0,0,0-.279.162h0a3.6,3.6,0,0,0,2.1,3.315H2.382a3.233,3.233,0,0,1-.605-.058h0a.188.188,0,0,0-.214.242h0a3.6,3.6,0,0,0,2.845,2.449A6.63,6.63,0,0,1,.694,46.5H.278a.275.275,0,0,0-.269.207.285.285,0,0,0,.136.315A9.862,9.862,0,0,0,5.1,48.354a10,10,0,0,0,4.235-.9,9.352,9.352,0,0,0,3.1-2.322,10.18,10.18,0,0,0,1.9-3.178,10.038,10.038,0,0,0,.645-3.478v-.055a.611.611,0,0,1,.229-.476,7.1,7.1,0,0,0,1.429-1.568h0A.188.188,0,0,0,16.4,36.1Z" transform="translate(0 -34.491)"/></svg>