<svg xmlns="http://www.w3.org/2000/svg" width="25" height="20.795" viewBox="0 0 25 20.795"><defs><style>.a{fill:#fff;}</style></defs><path class="a" d="M24.6,36.91a9.9,9.9,0,0,1-1.724.581A5.375,5.375,0,0,0,24.3,35.232h0a.282.282,0,0,0-.412-.328h0a9.947,9.947,0,0,1-2.635,1.089.672.672,0,0,1-.165.02.7.7,0,0,1-.461-.176,5.39,5.39,0,0,0-3.566-1.346,5.763,5.763,0,0,0-1.708.264,5.222,5.222,0,0,0-3.519,3.762A5.75,5.75,0,0,0,11.7,40.5a.193.193,0,0,1-.049.151.2.2,0,0,1-.149.067h-.019A14.132,14.132,0,0,1,1.773,35.53h0a.282.282,0,0,0-.462.036h0a5.4,5.4,0,0,0,.877,6.551,4.83,4.83,0,0,1-1.229-.476h0a.282.282,0,0,0-.419.243h0a5.4,5.4,0,0,0,3.148,4.972H3.573a4.849,4.849,0,0,1-.908-.087h0a.282.282,0,0,0-.321.363h0a5.4,5.4,0,0,0,4.267,3.674A9.946,9.946,0,0,1,1.04,52.5H.417a.413.413,0,0,0-.4.311.427.427,0,0,0,.2.472,14.793,14.793,0,0,0,7.433,2A15,15,0,0,0,14,53.939a14.028,14.028,0,0,0,4.648-3.483A15.27,15.27,0,0,0,21.5,45.689a15.057,15.057,0,0,0,.967-5.217V40.39a.917.917,0,0,1,.343-.714,10.653,10.653,0,0,0,2.143-2.352h0a.282.282,0,0,0-.349-.414Z" transform="translate(0 -34.491)"/></svg>