<svg xmlns="http://www.w3.org/2000/svg" width="256.222" height="24" viewBox="0 0 256.222 24"><defs><style>.a{fill:#0d73e2;}</style></defs><path d="M83.586,880.68v-9.3H72.9v9.3H67.574v-23.6H72.9v9.843H83.586v-9.843h5.326v23.6Z" transform="translate(-67.574 -856.915)"/><path d="M109.879,879.684a6.977,6.977,0,0,1-5.7,2.359c-3.877,0-6.236-2.359-6.236-5.662,0-3.4,2.461-5.427,6.911-5.461h4.989v-.338c0-1.922-1.281-3.033-3.776-3.033a11.484,11.484,0,0,0-5.393,1.584l-1.618-3.573a17,17,0,0,1,8.192-2.091c4.854,0,7.652,2.427,7.685,6.506l.034,11.832h-5.09Zm-.034-4.079v-1.618h-4.079c-1.988,0-2.966.607-2.966,2.056,0,1.383,1.078,2.292,2.831,2.292C107.823,878.335,109.542,877.156,109.846,875.605Z" transform="translate(-72.938 -858.043)"/><path d="M142.164,870.414v11.394h-5.191v-9.877a3.367,3.367,0,0,0-3.574-3.708c-2.6.034-4.146,1.989-4.146,4.653v8.932h-5.191V863.673h5.191v3.168a6.768,6.768,0,0,1,6.269-3.371C139.569,863.47,142.164,866.167,142.164,870.414Z" transform="translate(-77.55 -858.043)"/><path d="M164.3,865.452l-1.787,3.54a12.252,12.252,0,0,0-5.528-1.753c-1.213,0-2.09.4-2.09,1.348,0,2.73,9.574,1.349,9.54,7.753,0,3.708-3.27,5.663-7.382,5.663a12.659,12.659,0,0,1-7.854-2.529l1.685-3.505a10.93,10.93,0,0,0,6.3,2.258c1.315,0,2.292-.438,2.292-1.415,0-2.9-9.4-1.349-9.4-7.72,0-3.741,3.2-5.662,7.146-5.662A13.523,13.523,0,0,1,164.3,865.452Z" transform="translate(-81.989 -858.036)"/><path class="a" d="M201.732,860.789l-3.1,3.775A8.544,8.544,0,0,0,192.5,861.5a7.265,7.265,0,0,0,0,14.53,9.107,9.107,0,0,0,6.135-2.765l3.135,3.4a13.813,13.813,0,0,1-9.54,4.213,11.979,11.979,0,0,1-12.371-12.068c0-6.809,5.427-11.932,12.573-11.932A13.429,13.429,0,0,1,201.732,860.789Z" transform="translate(-87.404 -856.879)"/><path class="a" d="M227.181,872.748c0,5.527-3.91,9.27-9.709,9.27-5.832,0-9.741-3.742-9.741-9.27,0-5.562,3.909-9.237,9.741-9.237C223.271,863.511,227.181,867.186,227.181,872.748Zm-14.226.068c0,2.966,1.821,4.988,4.517,4.988,2.663,0,4.517-2.022,4.517-4.988s-1.854-4.99-4.517-4.99C214.776,867.826,212.955,869.849,212.955,872.815Z" transform="translate(-92.328 -858.05)"/><path class="a" d="M253.627,870.414v11.394h-5.191v-9.877a3.367,3.367,0,0,0-3.573-3.708c-2.6.034-4.146,1.989-4.146,4.653v8.932h-5.191V863.673h5.191v3.168a6.768,6.768,0,0,1,6.269-3.371C251.031,863.47,253.627,866.167,253.627,870.414Z" transform="translate(-97.236 -858.043)"/><path class="a" d="M273.807,879.944a9.65,9.65,0,0,1-4.719,1.247c-3.236,0-5.7-1.854-5.7-5.6V867.2h-2.529v-3.573h2.529V858.64h5.157v4.988h4.921v3.607h-4.921v7.483c0,1.518.641,2.124,1.753,2.091a6.033,6.033,0,0,0,2.427-.674Z" transform="translate(-101.711 -857.19)"/><path class="a" d="M285.579,866.942a6.6,6.6,0,0,1,6-3.472v4.888c-3.708-.337-6,1.652-6,4.72v8.73h-5.191V863.673h5.191Z" transform="translate(-105.16 -858.043)"/><path class="a" d="M313.77,874.331H300.758a4.633,4.633,0,0,0,4.686,3.641,6.427,6.427,0,0,0,4.584-1.922l2.731,2.765a10.114,10.114,0,0,1-7.753,3.2c-5.8,0-9.472-3.708-9.472-9.2,0-5.6,3.809-9.3,9.337-9.3C311.242,863.511,314.208,867.725,313.77,874.331Zm-4.854-3.067a3.787,3.787,0,0,0-4.012-3.943c-2.292,0-3.843,1.55-4.248,3.943Z" transform="translate(-107.835 -858.05)"/><path class="a" d="M327.045,866.942a6.6,6.6,0,0,1,6-3.472v4.888c-3.709-.337-6,1.652-6,4.72v8.73h-5.191V863.673h5.191Z" transform="translate(-112.483 -858.043)"/><path class="a" d="M348.359,879.684a6.976,6.976,0,0,1-5.7,2.359c-3.877,0-6.236-2.359-6.236-5.662,0-3.4,2.461-5.427,6.91-5.461h4.989v-.338c0-1.922-1.28-3.033-3.775-3.033a11.482,11.482,0,0,0-5.393,1.584l-1.618-3.573a17,17,0,0,1,8.191-2.091c4.854,0,7.652,2.427,7.686,6.506l.034,11.832h-5.09Zm-.034-4.079v-1.618h-4.078c-1.989,0-2.967.607-2.967,2.056,0,1.383,1.079,2.292,2.832,2.292C346.3,878.335,348.022,877.156,348.325,875.605Z" transform="translate(-115.057 -858.043)"/><path class="a" d="M375.351,865.452l-1.787,3.54a12.255,12.255,0,0,0-5.528-1.753c-1.214,0-2.09.4-2.09,1.348,0,2.73,9.573,1.349,9.54,7.753,0,3.708-3.27,5.663-7.383,5.663a12.659,12.659,0,0,1-7.854-2.529l1.685-3.505a10.929,10.929,0,0,0,6.3,2.258c1.314,0,2.292-.438,2.292-1.415,0-2.9-9.406-1.349-9.406-7.72,0-3.741,3.2-5.662,7.147-5.662A13.523,13.523,0,0,1,375.351,865.452Z" transform="translate(-119.264 -858.036)"/></svg>